Coordinates
version=1
nRows=12
nColumns=33
inDegrees=yes

Units are S.I. units (second, meters, Newtons, ...)
Angles are in degrees.

endheader
time	ground_thorax_rot_x	ground_thorax_rot_y	ground_thorax_rot_z	ground_thorax_tx	ground_thorax_ty	ground_thorax_tz	clav_prot_r	clav_elev_r	scapula_abduction_r	scapula_elevation_r	scapula_upward_rot_r	scapula_winging_r	shoulder_elv_r	plane_of_elev_r	axial_rot_r	elbow_flexion_r	pro_sup_r	wrist_flex_r	wrist_dev_r	clav_prot_l	clav_elev_l	scapula_abduction_l	scapula_elevation_l	scapula_upward_rot_l	scapula_winging_l	shoulder_elv_l	plane_of_elev_l	axial_rot_l	elbow_flexion_l	pro_sup_l	wrist_flex_l	wrist_dev_l
      4.17000000	    -41.22218472	      0.02578143	     -7.57655516	      4.99196294	    801.66072831	      6.15323315	      7.18615475	    -45.00000000	     45.00000000	    -45.00000000	    -25.13424437	  -1876.87413293	  -2985.87877693	    145.22654161	    179.99999979	   1087.60121504	     47.41099912	     21.48778413	     15.78556446	     14.26775903	     45.00000000	    -45.00000000	    -42.60238507	    -16.48834428	   1157.60608835	  -3894.55454717	     24.04969663	    -26.56677402	   1806.56620056	     27.91710267	     10.65756321	    -19.00540063
      4.18000000	    -41.25236511	     -0.26861075	     -7.49053418	      4.91740491	    801.42367333	      6.12224013	      7.73061165	    -45.00000000	     45.00000000	    -45.00000000	    -25.46639886	  -1876.92295382	  -2985.90384213	    145.02711269	    179.99999979	   1087.26470413	     47.31787969	     21.41913664	     15.89909061	     14.41135004	     44.88852477	    -45.00000000	    -42.30682694	    -16.54625743	   1157.89809857	  -3894.41637730	     24.10546797	    -26.28894663	   1806.37082695	     27.97713837	     10.15260229	    -19.39774644
      4.19000000	    -41.33306353	     -0.28375872	     -7.60396753	      4.49598202	    801.17907638	      5.94480544	      7.38417181	    -45.00000000	     45.00000000	    -45.00000000	    -25.64017841	  -1876.79686130	  -2985.93589418	    145.24123377	    179.99999979	   1087.45095636	     47.41414683	     21.35070619	     15.70659639	     14.29517410	     44.95580555	    -45.00000000	    -42.69918219	    -16.90557876	   1157.74750016	  -3894.46477042	     24.09855252	    -26.37610755	   1806.48709613	     28.21533424	     10.76182496	    -19.01316848
      4.20000000	    -41.26176980	     -0.36187574	     -7.62648045	      3.76633597	    800.93517530	      5.65680906	      7.63759929	    -45.00000000	     45.00000000	    -45.00000000	    -25.85491026	  -1877.05237366	  -2985.92906441	    145.13297880	    179.99999979	   1087.46297124	     47.76655462	     21.44078685	     15.70894590	     14.39696538	     44.82201059	    -45.00000000	    -42.70456007	    -16.96543691	   1157.82921446	  -3894.56404393	     24.09694170	    -26.12579517	   1806.33222611	     28.17700929	     10.33856116	    -19.41947826
      4.21000000	    -41.18471204	     -0.56883656	     -7.51646838	      2.74863158	    800.66924351	      5.28937212	      7.56442410	    -45.00000000	     45.00000000	    -45.00000000	    -26.11624711	  -1877.17305399	  -2985.96327166	    145.15199103	    179.99999979	   1087.37106636	     48.19876045	     21.38925299	     15.60114235	     14.35492330	     44.75615382	    -45.00000000	    -42.56809217	    -17.13072019	   1158.00998049	  -3894.64491882	     24.10108211	    -25.98415561	   1806.19882734	     28.12291368	     10.44346700	    -19.27157908
      4.22000000	    -41.16718505	     -0.64886120	     -7.44280990	      1.46185129	    800.37345191	      4.87261496	      7.69219460	    -45.00000000	     45.00000000	    -45.00000000	    -26.49424207	  -1877.38074406	  -2985.89523166	    145.12315289	    179.99999979	   1087.30555982	     48.66798642	     21.47370075	     15.58759420	     14.33118642	     44.60571862	    -45.00000000	    -42.48104035	    -17.21400693	   1158.20305457	  -3894.50475597	     24.05460440	    -26.05226370	   1806.09708856	     27.97012681	     10.34402777	    -19.48212533
      4.23000000	    -41.11391930	     -0.79358321	     -7.46587238	     -0.08890638	    800.04166740	      4.43085545	      7.69356619	    -45.00000000	     45.00000000	    -45.00000000	    -26.67608742	  -1877.52455010	  -2985.91711923	    145.15216356	    179.99999979	   1087.27361386	     49.10395575	     21.44203770	     15.46561627	     14.33656452	     44.72390203	    -45.00000000	    -42.43579726	    -17.47093489	   1158.48911623	  -3894.50752660	     24.08777611	    -26.04104857	   1806.03732860	     27.76780695	     10.37537230	    -19.28840468
      4.24000000	    -41.01827293	     -0.43352580	     -7.90322274	     -1.88939732	    799.67481920	      3.98533076	      7.69657917	    -45.00000000	     45.00000000	    -45.00000000	    -25.80079478	  -1877.69902740	  -2986.22795412	    145.42808359	    179.99999979	   1087.05338611	     49.56901104	     21.63159138	     15.60456354	     14.35778207	     44.76160022	    -45.00000000	    -42.59149073	    -17.32016181	   1158.38805888	  -3894.39060860	     24.05282559	    -25.99904225	   1805.90372971	     27.49623918	     10.31621032	    -19.51474265
      4.25000000	    -41.18441662	     -0.46331648	     -7.90079464	     -3.95816205	    799.27031186	      3.54402530	      7.56737680	    -45.00000000	     45.00000000	    -45.00000000	    -26.86080162	  -1877.64946315	  -2986.00435643	    145.46155661	    179.99999979	   1087.34779106	     49.99264868	     21.68121914	     15.40168069	     14.35962995	     45.00000000	    -45.00000000	    -43.00872525	    -17.55211255	   1158.38348510	  -3894.49149158	     23.85780490	    -25.76841563	   1805.98145420	     27.15813035	     10.41652867	    -19.43638942
      4.26000000	    -41.11579687	     -0.55892629	     -7.82869851	     -6.28342673	    798.83604685	      3.11573774	      7.60765835	    -45.00000000	     45.00000000	    -45.00000000	    -27.38389920	  -1877.76345178	  -2985.91722822	    145.63776664	    179.99999979	   1087.29949142	     50.34192338	     21.73034506	     15.36089099	     14.39911614	     45.00000000	    -45.00000000	    -42.88005989	    -17.91843394	   1158.54289033	  -3894.28361773	     23.84313212	    -25.75445797	   1805.96723833	     26.86862421	     10.39218784	    -19.40942022
      4.27000000	    -41.14062668	     -1.42982995	     -6.85004055	     -8.87669524	    798.37618954	      2.70018635	      8.41435782	    -45.00000000	     45.00000000	    -45.00000000	    -29.85739015	  -1878.39979438	  -2985.65367325	    145.09543953	    179.99999979	   1087.33665667	     50.57490884	     21.59933316	     15.20886296	     14.92718789	     44.96887732	    -45.00000000	    -42.96063867	    -19.46114762	   1158.76286373	  -3894.34893189	     23.89870837	    -25.99287594	   1805.90750268	     26.58152477	     10.39089020	    -19.34044707
      4.28000000	    -41.14261562	     -1.62002203	     -6.64005476	    -11.74230137	    797.89797649	      2.29360592	      8.63860865	    -45.00000000	     45.00000000	    -45.00000000	    -30.63229879	  -1878.73616339	  -2985.71020438	    145.10410910	    179.99999979	   1087.27437835	     50.65695690	     21.69857188	     15.21382205	     15.06190261	     44.94576024	    -45.00000000	    -43.06300824	    -20.03589038	   1158.91322892	  -3894.35735933	     23.88016553	    -26.00282563	   1805.89324959	     26.41206977	     10.43161258	    -19.34258205
